<mxfile host="app.diagrams.net" modified="2024-05-12T15:48:46.849Z" agent="Mozilla/5.0 (Macintosh; Intel Mac OS X 10_15_7) AppleWebKit/537.36 (KHTML, like Gecko) Chrome/123.0.0.0 Safari/537.36" etag="gmE-RpY1AC6ldIm5s1IQ" version="24.3.1" type="device">
  <diagram name="Page-1" id="Sw4KVOPnkvFvFiyQNm1n">
    <mxGraphModel dx="2074" dy="1121" grid="0" gridSize="10" guides="1" tooltips="1" connect="1" arrows="1" fold="1" page="1" pageScale="1" pageWidth="850" pageHeight="1100" math="0" shadow="0">
      <root>
        <mxCell id="0" />
        <mxCell id="1" parent="0" />
        <mxCell id="4dt3MP7up7sCzVDODYnL-1" value="" style="shape=image;verticalLabelPosition=bottom;labelBackgroundColor=default;verticalAlign=top;aspect=fixed;imageAspect=0;image=data:image/png,iVBORw0KGgoAAAANSUhEUgAAAWoAAAHfCAYAAAB535IlAAABXmlDQ1BJQ0MgUHJvZmlsZQAAKJFtkM1LAlEUxY+lCDF9QYuCFrOICNGISaituoigYLCEajfzNA10fI0TfeyCWgQthCCINmH0H0Rto1XQokUQEREtaxdEbkpe92k1Wj24nB+Hw+W+AzR5Dc6zXgA5y7HjY1F1ZnZO9T/BBwWdCCFgsAKP6PoERfCtja98A4/U65DcdXT5WHxeT+yet0727K9tvfzNN7yWZKrASD9oAozbDuAZINaXHS55hbjLpqOItyWna3wg2azxcTUzHY8RXxB3sIyRJL4lDpp1frqOc9kl9nWDvF5JWYkp0jaaXujQMIJF+r+GIerm/2y4mo0hD45V2FhAGhk4UBEhhyOLFPE4LDAMIkgst2kIy45/d+d6+RIw+gY0F13P3ANON4HuO9frow7aN4CTK27Yxk+jnrK3MD+s1ViJAr4HIV77Af8OUCkK8V4SonJI+++BM+sTcRJkNrGVyoEAAABWZVhJZk1NACoAAAAIAAGHaQAEAAAAAQAAABoAAAAAAAOShgAHAAAAEgAAAESgAgAEAAAAAQAAAWqgAwAEAAAAAQAAAd8AAAAAQVNDSUkAAABTY3JlZW5zaG904ZxC7wAAAdZpVFh0WE1MOmNvbS5hZG9iZS54bXAAAAAAADx4OnhtcG1ldGEgeG1sbnM6eD0iYWRvYmU6bnM6bWV0YS8iIHg6eG1wdGs9IlhNUCBDb3JlIDYuMC4wIj4KICAgPHJkZjpSREYgeG1sbnM6cmRmPSJodHRwOi8vd3d3LnczLm9yZy8xOTk5LzAyLzIyLXJkZi1zeW50YXgtbnMjIj4KICAgICAgPHJkZjpEZXNjcmlwdGlvbiByZGY6YWJvdXQ9IiIKICAgICAgICAgICAgeG1sbnM6ZXhpZj0iaHR0cDovL25zLmFkb2JlLmNvbS9leGlmLzEuMC8iPgogICAgICAgICA8ZXhpZjpQaXhlbFlEaW1lbnNpb24+NDc5PC9leGlmOlBpeGVsWURpbWVuc2lvbj4KICAgICAgICAgPGV4aWY6UGl4ZWxYRGltZW5zaW9uPjM2MjwvZXhpZjpQaXhlbFhEaW1lbnNpb24+CiAgICAgICAgIDxleGlmOlVzZXJDb21tZW50PlNjcmVlbnNob3Q8L2V4aWY6VXNlckNvbW1lbnQ+CiAgICAgIDwvcmRmOkRlc2NyaXB0aW9uPgogICA8L3JkZjpSREY+CjwveDp4bXBtZXRhPgqjShcGAABAAElEQVR4Ae2dP2wcR7avD699jef14tqORCUEdxM7eKEIkAADAQspkAISUkJa2AcDUqBQUmIykSAlM05EhQ5kwHgLaSaRIAJXCiQswIAAB6CSC7xATnYHSkhGki+u1w++zzvvVHVXd1XP3+bMcGZ6vjbk6emuOnXOV81fV58qsmcaugkbBCAAAQiMLYF/GVvPcAwCEIAABCwBhJoLAQIQgMCYE0Cox7yDcA8CEIAAQs01AAEIQGDMCSDUY95BuAcBCEDAE+pDqa7OyMyM92+1Koe5GcV2yrXcNW2FWll9KMsxax+vTWpBAAIQGGMCnlDPytqzhjT2SuruilQOdP/Zmszmct6I9GlZ385VKS1sRHppM/3OHgQgAAEIyIetGSzKfD6Fjs0YsT8QMWLd2nDno4sbeqMQFevOxTgLAQhAYJoIeCPqaQqbWCEAAQhMDoFjC3Wt7OWyNa/dKiXtlwnPh/nw1Wr+TPjkIMZTCEAAAv0ROJ5Qay55abMke/rb5+Y30E1ae7OcmXjcXJKds975pVWJ9NiI9HWR76JzDc11LK6fbin0/YVGbQhAAALFIHA8oTa55MaGLOqaELNSpOX8X2lPNhYjSIsbe1KSbanu6Mi59oNONm7L+mk3Il8SM324ucM6j2JcUkQBAQgMmsDxhFq9iNIa0cj4oLLSxa95mfeLrFTkIB6NmxG5/edUvYslTkMAAhCYNgK5hLpWjtY3H1ZXZalmxPaZrPW0OqQudV2yt+iWkmzr92kjTbwQgAAEjkmgjVDXpK5ZCn+z4ixnNd0Rb4nYHspOtcXC6Vo9+WWZWlnTGzqK/tpUXvxaKiubshT8Mk1NqsGEYnP7rlk+IQABCEwdAU07xNtBQzMY5m9Tt/1X0tlDux1UGprJiMutNEqllXi/1IiKZGwlFeP6WkrnH7124np7Je/YSkN/6YYNAhCAwNQTmDEEpu7uRMAQgAAEJohAm9THBEWAqxCAAAQKTgChLngHEx4EIDD5BBDqye9DIoAABApOAKEueAcTHgQgMPkEEOrJ70MigAAECk4AoS54BxMeBCAw+QQQ6snvQyKAAAQKTgChLngHEx4EIDD5BBDqye9DIoAABApOAKEueAcTHgQgMPkEEOrJ70MigAAECk4AoS54BxMeBCAw+QQQ6snvQyKAAAQKTgChLngHEx4EIDD5BBDqye9DIoAABApOAKEueAcTHgQgMPkEEOrJ70MigAAECk4AoS54BxMeBCAw+QQQ6snvQyKAAAQKTgChLngHEx4EIDD5BBDqye9DIoAABApOAKEueAcTHgQgMPkEEOrJ70MigAAECk4AoS54BxMeBCAw+QQ8oT6U6uqMzMy0+FeuDTbSw6qszqxK9dCZjdpeTQ+4E+0/a2X1tSy9eZbffq2sHAYdd/toOAMBCECgLYGZhm7BWSOASyJ7jQ1ZNCfs902R0p40NuyRoHjuL0akT6/LtqxI5eCZrM3mtjD0CkaklzTkgcU8dI9pAAIQKDIBb0TdJszFDdkr6bnNsjcCblO2l8Oza/LsoKIyPb7b4kYjinl8XcQzCEBgigh0F2qFMT9vZHVb6vUpIkOoEIAABMaEQE9CXa9vq7srKtjG6ziXXa4mOW2byrV5Zy+/vVrVkul2WF2N89+am66nx6O9mpQ1N56mhKPvJmcd1PMM2uN+Gx3bz9rPtm++R2Vsjj51JDjucug2f21y+W3KWRu+b7HtlvHYXHvELTCnLaex63nPXnTc5OebfU588/1L2MTzAsl3taH75WRuILaXdcTgYYMABEZHwOSog22vpDnrUmPPHbTfpSErlcaB/ldZ0X0x/1YalQNXKDq+4g4cVBo6Bm+UnJHAppYtreh5V3+voZkVazMqn3437UQ243ZjgweVlcgH65PxoVP7qb3EH+d28pmpv6f+mziTCpGNJD6tp+mgpvNJcaVnY7L+pe03xWPi9mNK4tGINMZW7SWxW2ZxP1m+jqd1Tvl4fWgPue8mVle2Oa4ECTsQgMDYEJAmT5wwx+JpRdkTECeKTmA61Y80KBLBVMS0RlZYYmFLyzQLSCiMkZBFN4+MB57/WXvp9xZ1OsbY2R8rnkH9bIyd6xtvIgF2YhqVj26I0U0s2o/Oh2VtZe/GZ63ZG2oq9GovCT7qj7b9Z6qzQQACY0WgTeqjpKs+GkbEo3/P1qTr4gz3OL1zVuvsiZl/tNvhjlRN5sTfNIcy8MnEdu377bbZr+2YJR7+NivzORa4RKkhv77u2xj7yeubVTFeH9i+iFfiZJpq/jorZ9dWZHv9B02OmBTKjsx/7QKalbUN7Z3NpTgV1esSx+ZWOAIBCJwMgTZCnbdxzW3qkrvFPRWW7BK+2Xm7zK9W9xLMec13Ld+h/a5148nS7brUeyjbqoidbN2uyk5TiC6v36pWt2P9iLzI7NqG3iw3Nf9ck536vJz177S6ksfehO3qm01Z6nk9ejefOQ8BCAyDQBuhrslxdDUR49qOSoTbFuWsDuC2168ny/tqP5h11Nuyftr/pRedzsvbaEZck/pB+86P9vZnz67pCF8Fy02imQk2E4AZddpj82IWvmzX65GxzPlIFDWe6+kEqo2xtHHMdeKL8rVOBmwuZfhUU/tpVO32Ihvb60tS1/hSnTaTwfEoegKWSraLjuMQmCoCaSImzl16uek0x+lKZcokec94cs3VLZWSCcLIRlivVDGTjeGElkK3E4QrlX9P6ppjpr7NTzvbmgv+DzeZaI9FedugTNB+sz0XTfDp5bZN7rsSTBZqyW7n3QSi8zNhE+abW8Wz1yIe41sQk9o1JqP8tMtba+zxxK3jlzRrgzNtR3zsV/s/7YuSmcx1NrxJXxdDaCStyh4EIDASAs2/mThVt6miB6spobLIRjYdVfSwiQ8CBSPQJvVRsCinNJxwEnFKIRA2BApAAKEuQCcGIXi/QHNdvj5mjjywyBcIQGDEBEh9jLgDaB4CEIBANwKMqLsR4jwEIACBERNAqEfcATQPAQhAoBsBhLobIc5DAAIQGDEBhHrEHUDzEIAABLoRQKi7EeI8BCAAgRETQKhH3AE0DwEIQKAbAYS6GyHOQwACEBgxAYR6xB1A8xCAAAS6EUCouxHiPAQgAIERE0CoR9wBNA8BCECgGwGEuhshzkMAAhAYMQGEesQdQPMQgAAEuhFAqLsR4jwEIACBERNAqEfcATQPAQhAoBsBhLobIc5DAAIQGDEBhHrEHUDzEIAABLoRQKi7EeI8BCAAgRETQKhH3AE0DwEIQKAbgQ/9Aj/99JP/lX0IQAAClsCnn34KiRESYEQ9Qvg0DQEIQKAXAgh1L5QoAwEIQGCEBBDqEcKnaQhAAAK9EECoe6FEGQhAAAIjJIBQjxA+TUMAAhDohQBC3QslykAAAhAYIYEehHpffv/ZZ/Jpp39b+yMMoV3TR/LJlazfW/Jxu+LDPH70RP7tyhP5KG7joydXIp7esWE2H9je32rqy397chQUGcYXE/Mg2/l4K+7bsbz2eiCo/fCZ/kx1/KfXR7ee2VcOn3UsdyRP9Ofgygn0cQ9RU+SYBHoQ6mNaHmU1I4yffSEfPs86cVc+0h+O35/kfcUI4xdXZSbrygi+W3E7d7ep5ZmrX8inQ7xpmHY/vtrUGU1+TNWBhZvy/v375N+P31/U8O/IK+/Y+0eX5dRUQSHYdgRyCfVvr97LT3ohNf27udDO/giO6xOAE8Y7rzxfX8lvsTcfnBvRyDpu/9fLjyK/9Afx1xMiZEa0H1mNvij/78e0D3+xAqFOPL8q/4NR1wn1Bs1AIB+BXELd1bQdyZpH0ivy+6348V73PzlK0ye/30ofvdORbXOaIj1nWu1WP/XsoycP5APz9eL38ktwA1mQ/3p1R0/ckV/f35Rf4irpI/RWmuJxj9NJPB0es5tSCSbeyLhNcbgRrArhxzqaN4//zakPL779DAvnS+yv6MOwn9Ix9tIY2j0q7MtH8Yj2t1eP5GdvmPbr5fvy/3Qw1/j+R/nPy94JbS+xG6e9sqmL5Lz6mMRky7obYeRrdIMQsSN3ez14tvV6SFJrXqyJ7TZtJzgGtGNTCNpWkorIphP0Wrjin/9sS69Kt+3Llp7b2o8+nY1susG24cXoanf8bEqRXJFW99NdkwJx/mV9b2og9LNz6qSpMgdGQGCwQp0E8Fw+uOsedc/IP72f/w/uukfvi9KYMxWMSDWnKT44F4laYjLeaa4flvjgbdRu49Jy82hVHzd/8kQ6qKl+WYHXg405daxVyuLuuTBFYMo4IU6MPZcPv3BClRzseeeDcxkW2qYvkB9vheeN+DkhbNvI0VuJOvqO/Nb08HNKfn70PiPSocA6u1ZoWwmN+himNjTF1GsqJcs9vhFlY2rbtnOuj08joOdefy8/JmmHV3JHb6xfuFiNSOtT2hl9onTpild37sq5jCDePXdONHcRlfnxexHtG1+sF27quWDw0MVpI9LnXsv3+gSUtvtczfo3CbWhvl6VV3GZH+V7/fZFxre0JSPS5+SuPm0mNs9o+eDGk5ZmbzwI5BJqI57Nk4rpCDIIKUk7pKNXe96MdG36JBrZfbx1LhZIM9KNH8ntyNeMwG4lo9PEdqZ+ctzuHMm/vA6P9P4tTQn852WRTx5EN5Q03fOjHXmaH4qP4qHUx7uZMvrD2bANvpZ/0VG1TXHEsdgRvsaXHbU2+ZfEF7enBWae7kYTkSoY/xrf5xK/kjabLKUH3r7NlSP/6MmtOL+fMvnJtaOiHD7tmGbScmkq5an861F0E/jVPMjoZkbtP70PR/R+XcMmf9uR7eP/f19MN9654eeDF2TZ+Pz6bTSZp/yea4zm/u02K7rZHLJe84kOn7os9zWt9PzqY2/k7Wr39rkfOSb+g85C5Ji8DWYZNbedNiyX738vF/U6fZwO+ZMGj/SJ867JhSflRRZu6o1Jjz5oNVRParIzSgK5hLp3R/UH96umoZut/pv+QKR52X0deUdWf3vlCfrCV5Eo6o/HB7vBFSlh/d496lryzo00JXC0Kx/EDwTpzSkdyf5L/FPyi46QTL7+vxbidITLjXdtrH2BNL5T8t+XNCfhb05wVcx/dXhVEP47FkK/6PH3j+Rfn0bBN76/nzLx2vlgN6MAHrtfly/FN6sePfDqmrRO7rZ7bKZ9sQW5qX0Y6VaaEggelBaWVcjMSLbz6ok7y65TotZOKYuL8jojqu09yZ7xR+BJaiZwLK5xZ1mClk8ti7l0XodqroWPZNf0bba81jb6/1yvL7bxJJBLqJNRnBv52s/sCOk4gbo0iKt7Sv55xu3n+TxuvTxt6Ag3vqDTvGwq4vks5Sv90dvWjwu/zWUEPWtWh4KN7LEevv9zzstZafmu7fRgs9ciJ9l2IoImJaA3QZMCcQ9Ckb9GzDWloJifazrD5YJdZqTXmHKX8/LT5+5ejFIgoWO5TdoK+lTkYnCfrfT/eMapNQwCuYR6GA5ENp+r+PnWj5/CcGKSpAsCs2bZXptUjV8u2U8f6YOVLnb4lU7QiUvzuPRAUv9kdlxevm1rp+bkn/ak5uEzg2Fz2E7ctVAd9+Tg7HZtxxUcwGffbTdN/rWehBMtZ7Jcd1xuOZvOSGI5JZc1lx/ldSPRvnuujU1Xx6ZM3Je8n7r+OXIsbvNRkALpbO2txFM1rYt5+WmXp7afXjqkdUWOjorAiIV6QX6LH9uDJXP7j5Mc6W/L4aiuG6hfL9+IluFpju7jQHx00tKmJnqY7NNHx9/sIFXLJok+f2WGepFM0KVpno92n7bPBT9/m0xWdouh3fkkreDlyY3QuLx1u3qahZRf42V4H6i4uFUpprx5KrATd8mkZZpyCeYIvHZ+yzzit283POOeRMKj/rcBtq2pmkc6Mk6FqI3QWTG9I2FIUd7a9yzcN6Jt8rrPxc8W3M2khI7ME9DFS5LzEo6bisQ2m06xeevQmTSX7o7rtWmevc5knohEV2XPmSdVl3t35TUlwi/FJDDGcieXUKf52sykYq8z/C0Q/PKVm4CLfhnFTlbGz2FBjrRF3daH3DI8Pavik05+uklLfYT38+Etjegk2I34DpLYiOu7/HAySjXCH/EIVz5kDcfxBTePbJku3/08sZvY/eKpmY/rurllePrwnvhr2CQ+a1z/N561Sm52flmXf9fR2H8FCdGuTacFYpbNk5FpkaG1nTYR7mla6GJmIm1fJ7jt1IneXO2Dnk1BhKNnNykXCLzGl3Sv3thu6ZLIcJIybLrztzkxGa27D7zfTlQ/oh+N8AZhJriTFSpGdG9dlefan62miezEYVBexxw6eXz1+R254c9adnaOsydMIJdQD8U3FZ//1PyfWcvrbyYf3nWFhF/B37fL8JptRmuozeSfX7jNvrGRzQfqxf9L8ksqekMIUh1RmiRa4eBNgqodt+qhTUu5Dv9yM4zLrIv+757y+dEKjKaYtHW7GiOJy7ijseloNOu3LXeMx+NfdFWB+2Wj7sEOtu2u7ZmRt/azn3s+p0vdot8UjCcCtQ/fvzpjJxNdTlfvW5ozvhlM4l38Xpfk6Q3UltECZjmfjyvfOup41G5E1a2PNqv/9JozPyrBRKHePF+Jyzt/IVfP6NK7tikck2/XpwG9qaSxnNFVhWEsXblR4EQJzDR0cy3yKi5HYkw/dZT2b/HINv0FFbPiJJrMTI+Nqf+FdStam/xalx8+KuiolFdxjfbiDd6ZOFpXaL0rgTh3/qGusLK/AKKjunS7KHnz+Wld9iAAgXEmMPrUxzjTGTvfTPoiTH1ELpq0yyCWSY5dwDgEAQgoAVIfXAYQgEBXAqQ+uiIaagFG1EPFi3EIQAAC/RNAqPtniAUIQAACQyWAUA8VL8YhAAEI9E8Aoe6fIRYgAAEIDJUAQj1UvBiHAAQg0D8BhLp/hliAAAQgMFQCCPVQ8WIcAhCAQP8EEOr+GWIBAhCAwFAJINRDxYtxCEAAAv0TQKj7Z4gFCEAAAkMl0FWo09cUea+jd392Mf6M3rQcvW8u+Xu8Q3V7Eo0rn7Zvhh5gPPZvJ2feUj1A83lMHelLCU72egivQdP+Z12Y2zLxdXyyvuYhmSnb4u9jZ0rwtWAEugq1fcFm8qaM6BVE5tVT6Zsz3hf2TzsOsq+TP0Y/SKOtbJm/nTwOf1s4/sP5rVwcm2Puj/vHr+Hy/3b02PiIIxBQAl2FGkoQgAAEIDBaAkMQ6ujx07094rMWz5NhOiV8xVFLHDryuRKkW5of7f1HWNN22Gz0TritJ6mdrf+9pW+4aNF2NnWQbTs0rK8x0sfrrSf2nXM25sx5fdGRPWdfoWTf1uG1advyU0reOQciKKPnn7TxOyjv84naT/qjiY2rGH+6+IN2szxN2Uw/f+a1aerqCw70z2br29A0viYm5vVPys2vo2Wbj0W+R6k106a2utWFV1Ss+/+zPnopkrCNbOwmbtcPxhfTZy7lkmFi4w6PNaHocn3ZQIK+0Pbedg+PEsUiMHChvnvugcz9GL9U1LzKyn+PnLIzPwTn7t7RV/+4MtErjpouYMfZXMjxa41cuuXVnbtyzvvBMj/gWkRfjRTb1NcVvVaB8H/Ajbm7V5/KpbjMzf+1bF9O+nT3yLVkP+3LQ+8sR69YittWw3GqR1M/r/UVRl7bttLdq/L0Ulym6fk5enu1fauXvsrrx/fxS1bND9+516nPyuPVnef6uqeM4PllzOugrtq3+QU+t/9ihC5+NVPC+452iRGX9rWUlJx7MKe+RjyjbvT8suKi7xX0UmC2T5zwmvRL/Moo+3bvJib6mtXlS/pKqfhVV9aVI9l9aqTdPxa94NW9pDX3tdMpxKyP9tVV7qbqX5+GV1astZ/0eouu4fSluf61b1/lZV93lf48mGMB+16uL3ud3E3fkv7jJXma6xroBIFzk0Jg4EJ98fv76WvtF74S8/Lr5O3MemE+UJ25oy+XTV5bqD8wVgj8l3j69Oxboi+KvoM02WzePHkn3L481peIBu3qe/Dua8PPrz7WcZ+33bmR+qYeLOt95PnTXR3zui16+7R78/P+4+glofeT1yup6N7Xd9bpyDh5Obmtmv/FoNENwfdH31RoHEqESkVDYQVxxayct90/I6G7GMLTm04qLq1tXJTv71/Wd1ZH24K+gNi8AHY3hum4/OgJsH1pauYlsa1tx0f15cBndMyd3CiPduXp84ty8aL34tb9XbUYvyH8ONdORwdanNx/rC951dj9dyG2uT4vfv9Veg07U971Fd2I9L3D3s9DdCyNz3Fsf31F14CZE0pQx9e2a5LP6SAwcKF2o59W+I52n+qPZvyD5xWwAuXe+Owdt7sL0cj3qr7pOztCtuftD/NFubTsZCUy0Dxi0x8aX7C0WNTuU3GD6vDN0pFoX7y0nAiWtayvw7qkN5/g5aIX9Y3RUbM9/9/ebOKfvuRRO377ujVihUskyzMS816biW9GV79ofgroaOKMzIU4vdJH8va1fj0zF3JpeePzqjXtxr7pjdhu5oasQndDX9Trbuz+082xrp2mNjsfOIoCa4o9e50YK9l+MceC68veiFqXM2VN6mhXBy2dr6/oRusGDlE9fRqZ6+ltxq44nwUgMHCh7s5EH6uDfLPm+XyBajJg3pocrTbx3xQdpkpMysDPXep+nCNtMucfiG8C0agufvR2aY+4nN9mlOfVVIJ5Qu938/KO5+6aUZymGWx+pF/DYX1zQ7CP4f7brEN4YYUevwWi1GOdbDErgHd37VOPEWUjSPbY67f6lBPdEEKRynvtZFvs4fsxbro9WG1bpOP1dfRWn69abDrg0LEC2xQRGMHLbU3+z0t99AQ7yvNetmXjvKvmWef0PYHRMSN03R7nWzUUjerumvTHsuijt6ZlbiRJGVvh4lDeLJ0+0r5Pnmm1uXhw2crTfo6duvxI3keg7ITdF1fPyZW5/t6Y/dyOhFsMu5tG2h08t4LzVN4eafLptaa3vjJlVYSe61OOpllMKuTSfb/+ca4dv34P+/GTXXNknZ4yerDbpkjn68ukh1psNh0ocqnFKQ4Vk8CJjqijRzZ/siiCamf7sxN0bXkb0X5lJwKtVtgf9jTvl1SzI1ZvAiw5Ee64x9rHj7NpGU1n6LAlEiS/jpvh94/l3W/9SGsf9Z2pVikWPReUcWVzfBrRNgP35rh6NXJK7JO3HfX6deJH+Ux6yS/RtG9j1Dz148ei07xis1cud/1A++NifEwrDubaafIgONCuDct84CPtXq6vqIxLBTlnoxSN+8bnNBA4UaEWOzGTWdmgk0S3NJdw50Y6eRWAt4IbrlIIcsnx5Eowm26Wjmk6peWET2Bcv8Tpj7t3zXA6Xu1hy8QThzpz7+fG7S+u6OqNr8KBd9Zql+/xD6A/gapxRhkgd9PR9m/c0QnRW+kKjaRMr6O76Kbi+69D6mhCV9MMx93s5KJJpXgplOgXevJOqp6SZU34P797V54nI/E4d/1cJ4j9+YHjXDt5A7ST35nrM2be9vrM20ZSvpfrK7oGgpVT8c9LYoadqSBw4qkPkzN9JbpE77N0mZlZwuVnAALy+gP6/pVZl/uZ6IqoeAtn5s0o8UfRJXpemc6PlM6O+YyEQZcX2Bypf0b0JvDoR9HlgToZ5xo3S+ySFSdB6Y5frLjpMr4v1JCNV58K3n52zn6PKupjvS5pe6C5dTtRuaAP302xaxkdDp8717Ep76TJ77/Sdb+e/3rWsGnL26vddtdweT+ndnWpoutGu/TQu9lqmRt3rqqvn8ndDsyiUazeqL0bx5x5lNEtO0Gc+9ppG0C7EyqMj97LnFlCmgZm5w+ShT/tqh7neC/Xl70GROdxlKNtQ6/9780NPM1e2+WpTy8d67o8jtvUOXkCMw3dXLM//fST2+VzTAnwQzmmHVNwtz799NOCRzje4Z1s6mO8WYyZd/FvtHnpBbOky64Z91MCY+Y17kAAAoMnwIh68EwHZ1Hzkea3MjV7nmy9p3SSKuxAoG8CjKj7RtiXAYS6L3xUhsB0EECoR9vPpD5Gy5/WIQABCHQlgFB3RUQBCEAAAqMlgFCPlj+tQwACEOhKAKHuiogCEIAABEZLAKEeLX9ahwAEINCVQLDqo2tpCkAAAhCAwIkTYER94shpEAIQgEA+Agh1Pl6UhgAEIHDiBBDqE0dOgxCAAATyEUCo8/GiNAQgAIETJ4BQnzhyGoQABCCQjwBCnY8XpSEAAQicOAGE+sSR0yAEIACBfAQQ6ny8KA0BCEDgxAkg1CeOnAYhAAEI5COAUOfjRWkIQAACJ04AoT5x5DQIAQhAIB8BhDofL0pDAAIQOHECCPWJI6dBCEAAAvkIINT5eFEaAhCAwIkTQKhPHDkNQgACEMhHAKHOx4vSEIAABE6cAEJ94shpEAIQgEA+Ah9mi//lL3+Rf/zjH/K3v/0te4rvU0bgj3/8o/zud7+TP//5z1MWOeFCYLwIBK/iMiJtfjD/9Kc/jZeXeDMyAn/961/tjRuxHlkX0DAEJEh9/Pzzz4g0F0VAwNy0zXXBBgEIjI5AINR///vfR+cJLY8tAa6Lse0aHJsSAoFQT0nMhAkBCEBgogjkFOp92fr8c/l8az8T5JE8ufK5NB3OlOr6dX9LPv98S7LWh1bPN5yn7Txl/TZGtT9p/o6KE+1CYEwJ5BTqOIp7D+TJ0ZhGdPRErnx+pQf/optO3zeXMcWAWxCAQHEINC3P6yW0CxdErt16IsuPLsupXioMu8zCTXn3rs9GBmGjTxeGVr3IsQ0NGoYhMD4EjjWiPnPjhtx+cU1utRtWZx+1M6Pc/S1Nn5gUivl35Ym0HpxH6ZT0fPzd1fNTJEl7Okr+8pq80P+ufamj6v9jRtd+KsWlaMznebmn/XDvfJyySWy07hzf561dr0wmNtHEjUkP+SN1v26QNorbfPLkSsLD1PPL+3bEtuXY+U8NUVxXtrY0Xnfei9uPLbAR+ulFxS4EIDBGBI4l1CILcvPlbXlx7fGx8snnXz+UNzoEfqf/Xp5pJfhGeL6Up5feyLt41H705JZcO/PS1nn37o08vHBPHjTdKNSvNw/lgv738M0jufw/l+WSltt1Se+jXXn64rYsL5ySy49eym3tiNsv38nNhS49okJ3/t5teWl9fiNzr43E97YdqQin8Wqb987LlcDve/JU7tu43jy8YG8cu8sxG3Xw3gN3I4tuQmfUX8Pt3cszejPyxFjdeaFu3Yh9NHzOBypv/FWut65JYkNZvT4f2ugtKkpBAAInSeCYQq0u6uP0y9utxKAH93U0/jgWz4Wb7+TRZT+B8loexCLtHz91+ZG8SxT1rbx90UM7mphZvqTiFyv10e5TeXF7WW8z+bb9XVXApJ6K/A0j8b1sR7L79IVcuLQcp4gW5CsV4xdPd72niNtyI47/1NwZNWpuJJHtuTnNMbltf1fuXXgoXznnF76yN6vkJqTlLjz8Ko7tlFhTrm7mMxH/U5fl0bubuXlkzPEVAhAYMoHjC7U6tvCVjl51hNg0cOvktMmX6mjcpBxc+iOsbxRYxSw7WreP767OA3ntaVin5k4tX1Ifd+3I/62q+22ngp0qBeeO5O1r9WhuLj2q+701H91Qzsz5N6LUTJ69I+OE3uC+TFIbX8o1RfX6bevEUWvb5klCn0bEs9M29dTaAkchAIGTJ9CXUIuOyO6bx/UHj+VtHt/t5Fb0CB897vuP3zrCfPQoM1rXR/YH93TEqKkQ+2h/Xy712t4pl/7Yl11NX+TWaR0Lm9Hpi7dehLrf04Be5sQMivOJaevA7GhbR9QuZRRxyD6NtK4bHjViHadP3mkqptNcQ1iRbxCAwIgI9CfU6vSpy/d1hHZP7vnKZUecaW7YphziAE3ONp0g1PpGBS+ooGUALNyM8rn+aDsRy/3HdjSZqdLma5z+OK+Thy3aaVMpOLywbJPFyZI/mwpxJU7NyRmV7ae78cjWpCjcuTj1kqY69uWxDoPTVEhSsPvOwrIVVZcychOLPp/uRrITndGNZBAj/u5tUwICEDgugb6FWqW2OWerI22TxnXpjVs6/tWvdjO5ZjOBmDzCn38tD++3WuYX5XPv2cmuuA1Ns9h0ye6yjrgzo1xHwI6gzaqPdEWDTX/o+VAgF8Tqr6Zgwsk9Z8j71CcAnXezNk37DzSaNPUR552vfRn7Nqe547RuGK/eLG6/zOTk07Kd96KJ0tcuZaSrW3TGtPtEaGA0Y+NzTZ/oBG2S+g/K8gUCEBgXAsFfz/vmm29kc3NzXHwboB9mJPlA5sxKkP7TxQP0azJMlUol+fbbbyfDWbyEQAEJHOsXXiaOg10xcUneINIT13U4DAEISPhnTosIxP7ySNv0ShEjJiYIQKBoBIIR9R/+8IeixafLvXWFw83ChXWiARXxujhRgDQGgT4JBJOJn3zyiZg3erBBwBEw14O5LtggAIHREQgmE40bvDNxdJ0xbi3zzsRx6xH8mVYCTUI9rSCIGwIQgMC4EghSH+PqJH5BAAIQmGYCCPU09z6xQwACE0HAE+pDqa7OyMxM9G+1etg+gMOqrMblZmbKUmtfcrhnamX1d4TtDzc6rEMAAhCwBJpz1Eb8lvS3E1cqcvBsTWZbgKqVZ8QUkdKeNDYWW5TgEAQgAAEIDIqAN6JOTZpfGZbtdfmh1VBZR9PlWklKK6rl8/NppXjPiPjMzKp0GpA3VeIABCAAAQi0JdBSqOXs11JRId4sVyWbADncqYqsnZX5NiYXNxrSaDyTtVZD8TZ1OAwBCEAAAu0JtBZqTXisbbQaVdfkh/VF2Vibb2nxsLqa5LhnVlORj46bXHJNyi63XQ6H6+3qSlLHjNK1vlfP1mlqR0f0WuawWk5H9XFOvWPevWVEHIQABCAwegJthFodW2wxqq7tSK3ytbTKShvRvC7f6WjajKgbsre4LqetYK7K6fVtNbgpSzM7ctac39ObwGYqpO3qGjy18pLInrH5ncj1JbUSbaZOZDc5INera3Jg7J/d0XPejWB2TZ7p8WcM82NYfEAAAhNFQEU13PZKjdJefEj3NRPdqKj6NRoHjcqKvy+NleiEnttrqPRq2ey/kp7RmpUVPRftG0t6oLGS2O1cVzW9oROb2nrzZu26c9ampL43F+cIBCAAgYkk0H5EbW43i2elJNuybmYVaz/I+uJGh9zziqhuJyNqpaH7Gy1H3813svZ1F7+uyIpObJ62KZMOk5Q6ajbZms2leImhlyJpbo8jEIAABCaHQGehVpn9OppVlNXyppTOtkp6uGC3pV53+3k/O9SN0xY6ao9uGqfbi3U0kdkQHWkbxba56ryeUB4CEIDAuBFoKdS1+mHi5+zahhXIbanI1xmd3k6UORL0zaVQRGvVdEIxMdi007lurexs6iSmFeuMge261M0hM2EYj6Jn155FYp0pylcIQAACE0kgTdiYHLSXY3a5Xy1gcsFh3tor5+WebT7Zy1ObOlF+2pXXPHWcS1ZYNqft7Laqa3zbK600Vjy/XF68ld2S5tCd3eacuJ9TT6NmDwIQgMC4E2j+zcSJvN3gNAQgAIHiEmiZ+ihuuEQGAQhAYPIIINST12d4DAEITBkBhHrKOpxwIQCBySMQvNzWuP/NN99MXhR4DAEl8O2338IBAoUkEAi1EWku9kL281QExfU7Fd08lUGS+pjKbidoCEBgkggg1JPUW/gKAQhMJQGEeiq7naAhAIFJIoBQT1Jv4SsEIDCVBBDqqex2goYABCaJAEI9Sb2FrxCAwFQSQKinstsJGgIQmCQCCPUk9Ra+QgACU0kAoZ7KbidoCEBgkggg1JPUW/gKAQhMJQGEeiq7naAhAIFJIoBQT1Jv4SsEIDCVBBDqqex2goYABCaJAEI9Sb2FrxCAwFQSQKinstsJGgIQmCQCCPUk9Ra+QgACU0kAoZ7KbidoCEBgkggg1JPUW/gKAQhMJYGZhm5+5Lwz0afB/iQR4DVyk9Rb+JqHQJNQ56lMWQhAAAIQGD4BUh/DZ0wLEIAABPoigFD3hY/KEIAABIZPAKEePmNagAAEINAXAYS6L3xUhgAEIDB8Agj18BnTAgQgAIG+CCDUfeGjMgQgAIHhE0Coh8+YFiAAAQj0RQCh7gsflSEAAQgMnwBCPXzGtAABCECgLwIIdV/4qAwBCEBg+AQQ6uEzpgUIQAACfRFAqPvCR2UIQAACwyeAUA+fMS1AAAIQ6IsAQt0XPipDAAIQGD4BhHr4jGkBAhCAQF8EEOq+8FEZAhCAwPAJINTDZ0wLEIAABPoigFD3hY/KEIAABIZPAKEePmNagAAEINAXAYS6L3xUhgAEIDB8Ap5QH0p1dUZmZlr8K9cG68lhVVZnVqV66MxGba+mB9yJoXweVldlZrUqSfNDaQWjEIAABAZDwBPqWVl71pDGXkktl2Svofvmn/m+uSQzgxJrI9Kn12U78D9q+9nabHB0GF+MSJ9eD1sfRjvYhAAEIDAoAp5QtzG5uCFWuzfL3gi4TdleDs+uybODiqz0UrZbGTsy1yeAHDeR2bVnclDJ03pNyjnsd3OZ8xCAAATyEugu1Gpxft4I27bU63nND7m8EX0z6t9YHFpDtfKSbA7NOoYhAAEIdCfQk1DX6yZVsKKCbQzGuexyNclp2wGnG926HHcmB2zzwvac5qbrxo6/6ahVz6UD1+i7yVkH9YKkclTG5dTTur5dtx/7bNpXv+rucPyZthHl56NceWR/yai0Sf0k/oXtzsyUJc3gx+c6O5Npna8QgAAEuhDQPHS47ZUamqNuaI462ux3achKpXGg/2nWQM+bfyuNyoErFB1fcQcOKg0dgzdKzkhgU8uWVvS8q7/X0Cy4tRmVT7+bdiKbcbupQa3j+Wjbc/acT+mnpm4a4upq2dLKShyPlsnU1bSIF3+23YZJ2ae2lJLxPYk7bZI9CEAAAgMjYCYMw80JcyyeVpStSLtizeLlzthPr36kjVF5p5NpGV9YI8FLyzQLoC+QkZhG4h7dNKL9loJphdgTdXXA2gpiiiKwx23crnyHWK3dDu1GJvk/BCAAgb4JtEl9eKs+TA742Zp0XY/hUh87Z1X893TdSLwd7kg1u8hCcyh5pvOcqeCztBetSnGrU/Sz1aqRw51qZoWJy7mn1lzqY+dsvMolPdViL05vXBf5rnEgueYlW1jjEAQgAIFuBNoIdbdq2fMqXrrkbnGvxcTe7LyYqb5aPUgwZw3k/16r97QOenbeti5tm6+Vdbneol2O2H1O0uS6l6RWOejt5pU/KmpAAAIQaCLQRqhr7YWtyUR6IBHj2o63UmJRzurwenv9erK8r/aDWUe9Leun/V966V3MZ9c2pLS9Lqf9STsd0VfTWb3UqcWzOrrXtq67X3CpyQ9mHbWpn0x4pvHWdvw1HrNidd5Y8+xv1+uR/VZPC9EZ/g8BCEBgcATS5Emcj/Vy080530yZNKkc5X1d3VIpmSAMJgPj86WKmWx0OeooH60R2QnFlcq/J3XNMVM/zR1rGZdb9nLEtq47ngaU7gVlS42KmTBMyoftl9T3yJfIvyQfHpdPvht/VzRON7lqWcS2PC6pE+xBAAIQOB6BGVNNhYkNAhCAAATGlECb1MeYeotbEIAABKaQAEI9hZ1OyBCAwGQRQKgnq7/wFgIQmEICH2Zj/uabb7KH+A6BiSDw7bffToSfOAmBvAQCoTYizcWeFyHlx4UA1++49AR+DJoAqY9BE8UeBCAAgQETQKgHDBRzEIAABAZNAKEeNFHsQQACEBgwAYR6wEAxBwEIQGDQBBDqQRPFHgQgAIEBE0CoBwwUcxCAAAQGTQChHjRR7EEAAhAYMAGEesBAMQcBCEBg0AQQ6kETxR4EIACBARNAqAcMFHMQgAAEBk0AoR40UexBAAIQGDABhHrAQDEHAQhAYNAEEOpBE8UeBCAAgQETQKgHDBRzEIAABAZNAKEeNFHsQQACEBgwAYR6wEAxBwEIQGDQBBDqQRPFHgQgAIEBE0CoBwwUcxCAAAQGTWCmoZtvlHcm+jTYnyQCvEZuknoLX/MQaBLqPJUpCwEIQAACwydA6mP4jGkBAhCAQF8EEOq+8FEZAhCAwPAJtBfqWllmZmbSf6tVOdT/qtVaz14dVldlxtaLqxxWZXVmVaqHPZvoq2CtrP6Xe/e3r8aoDAEIQGBIBFoKtRW4pZpUDhpi5hrtv+9Ers+clvVqXeW6+2ZE+vT6dlhwdk2eNZ7J2mx4eBjfTAxLm8OwjE0IQAACJ0ugSaiNwC5trqhIZwTViuyBVBZ7c3B27ZkcVFZ6K9yllB2Z6+g+z+B4caMhe6Uuhv3TOtovn9RQ32+XfQhAAAJdCHwYnq/JD2YUXNprM+qdlbWNtbDKCXwzot8YarOa0rm+LrW1gxOIhiYgAAEI5CMQjqhrO2KyBSvz8z1aqUnZz2PPlKVjRtjmvb0y9rvJWatQrsb5cD+nbbwIcuVe3ZYeev60GH7blI7nry1i8+aa0tH70/b6ac3Jxzl0ezybo48bjc+tMgJv2QschAAEBksgFOq2tj0hjYXOiFytvCSbOvqO8th7UlKZb5s+MILrJ42T79uyfvq6yHeaCz+oyMr2uvzg1N6U2Tmb5MkPKjVZygp54rPxcUlqlYOo/Nl6mCpRW0ubJdmLc+4mLbJZ1glSm9IxvusNytY1KZ9ohK35n8hW1i9bpyHPTiLZnsTHDgQgMK0EMqmPdhg05fGsIWtWXM0kY5y/XlRxNVXMCPP0upipw7ZZ6cUNaeyJinXcRvLdsyfzkqbAVSzLOr5XozOZScGdw7Xm1EztB1mXihw48Vw8KyZbYnyym2kvclYFPRpBt3c2jtdUTG4o4vkWmeT/EIAABE6CQDiiVnEzI8vt6k6HlR2LMj/rXItTDXZArBONbVXalc//WdrzVp7Y0XBmkjM2WdvJqLnMynyq+rZUlPqIRu9dJzpd6sOO6KMRd37vqQEBCECgfwKhUOuY8axV6nW53jX/6qUanq2pLA5nq9UPezI8P693ie261NuUtqtZajri7ml5oN6A9Alh0dwkNjJq38Y+hyEAAQgMi0BGqPXxfiMaGduJtRYTcllHtuv16NDhjlSTPINXqkk8a9Kb9poVJiU7wee7cVittpywnD27ppmMTVlyhXVEbDInsrmU/tJL4suh7ATOzovRebvVqskv5CQ3iXiSNS7BBwQgAIGTJaATga23vZLJ6Gb+rTT0l2CSTdMH6fmVUqO0EpfXfEVwTkqNvcCe2vl3376xu9fQwXxiTyf2bDuhHWm444kT/o7fxkqlUSmpPfUlNtRQLY7trzRKJee7+qYFdHIxOheXT76bOiWNLa5r2z+oWFsdffH9Yh8CEIBAHwT463kne1+kNQhAAAK5CTSlPnJboAIEIAABCAyVAEI9VLwYhwAEINA/AYS6f4ZYgAAEIDBUAk2/8MKruIbKG+NDJMCruIYIF9MjJRAItRFpLvaR9geN90GA67cPeFQdawKkPsa6e3AOAhCAgAhCzVUAAQhAYMwJINRj3kG4BwEIQACh5hqAAAQgMOYEEOox7yDcgwAEIIBQcw1AAAIQGHMCCPWYdxDuQQACEECouQYgAAEIjDkBhHrMOwj3IAABCCDUXAMQgAAExpwAQj3mHYR7EIAABBBqrgEIQAACY04AoR7zDsI9CEAAAgg11wAEIACBMSeAUI95B+EeBCAAAYSaawACEIDAmBNAqMe8g3APAhCAAELNNQABCEBgzAnMNHTzfeSdiT4N9ieJAK+Rm6Tewtc8BJqEOk9lykIAAhCAwPAJkPoYPmNagAAEINAXAYS6L3xUhgAEIDB8Agj18BnTAgQgAIG+CCDUfeGjMgQgAIHhE0Coh8+YFiAAAQj0RQCh7gsflSEAAQgMnwBCPXzGtAABCECgLwIIdV/4qAwBCEBg+AQQ6uEzpgUIQAACfRFAqPvCR2UIQAACwyeAUA+fMS1AAAIQ6IsAQt0XPipDAAIQGD4BhHr4jGkBAhCAQF8EEOq+8FEZAhCAwPAJINTDZ0wLEIAABPoigFD3hY/KEIAABIZPAKEePmNagAAEINAXgQ+ztf/yl7/IP/7xD/nb3/6WPcX3nAT++Mc/yu9+9zv585//nLMmxSEAAQikBIJXcRmRNsLypz/9KS3BXl8E/vrXv9obH2LdF0YqQ2CqCQSpj59//hmRHvDlYG56hisbBCAAgeMSCIT673//+3HtUK8DAbh2gMMpCECgK4FAqLuWpgAEIAABCJw4gWML9dGTK/L551fkydGAfD56IleOY6+p3r5sff65bO1Hn1ecg/tb6u+W7A/I3cjMkTy58rkkbQzUNsYgAAEIRASOKdRHsvtU5PZtkae7g1LqQXXJgtx8eVvunT8v926/lEeXTw3KsLVjb1BXnsi4RT3QIDEGAQiMFYGm5Xk9ebf/WK7JJXmz/FYF8bHsX74pCz1VHEKhU5fl0bvLoeGFm/Lu3c0Wx8JD/X87JZcfvZNM6/2bxQIEIAABj8CxRtT7u/fkwqVlObWwLDp2lV0/n+BSEU9MquFz+y9IDdgURHS8U+pkf8uU8VIVQT0v3eDaS4a4UcrDtb3lfPNTH/6+gZHDxpfXXoi8uCZf2lE1qQ/vWmIXAhAYEoFjCPW+7N67IJeWTUphQb56eEHuBUptPH0h157OyZt37+Tdm4ci177UnLE5riJ6/rU8fKPHzbmXZ+TareY0ghHp8/LSjoqjkXq23m3VSh3JG5PBZoTzvLx++Cayr22/Pp83j56xYdMosQ0dqb/ReOXCQ3nz6LIMNqkSBMIXCEAAAgmB/EK9v6u53xviUr+nli/JhXu7TaJ5+0YsZJqauKG57FTMVcQfxxJrUhQZwXt6Kxbpm34yRfPO7x4lbR69fZ0EEOwc7crTF+4momdsWiStF5Rt9yVrY+EreXjhxRjm4tsFwHEIQKBoBHIKtY42H9xT1T2fpDU+//Kajp/vyQO3usISuiBzcymquTkdhdrNCO5Lue3XT3ITpsAL/e+CCv+DzGqSKMXg0hm3dCKz5fb2rdY/I3P9DHUHYaOlcxyEAAQgcDwC+YTajjZvy0uTtvD+mXTAi6e73kqIF6J6l2xv32peN9mMWMf1NTVxQUU71eoL8vD+I7lvsiV+SsRMXr5I231040xiLdjRu8MFeS1vk3x1cLa3L4Ow0VtLlIIABCDQE4FcQn2ka/Je3F5uWuFh0x8vnoq/Ui9JdehEnRmE317WVEZ20u7UnI5/w9G38frU5fvyUNeV3ApG6U6A41F9q/BOLculIE0RTSymN4K4khXjdBLUxuXsZW3Ym4SXTnHl+IQABCBwQgRyCPW+PNYVD1Zws87F4pbknlV8b8uDKD2iqRGdPRSbcjY5YzOB+KVb9WEm/u4nuefUrC5708T2i2u3ohRInCeO6t0SuaEj8ZYjZ7Nc7qWc0cnLKE0STSwG6W7TiMubn4/8uKVLDTWNHm8ZG+fvye2XaZ47uinpqg9/RYqryicEIACBIRAI/nreN998I5ubm/01Y0bNXz6VS29ScevP4OTXLpVK8u23305+IEQAAQiMhECOEfVI/KNRCEAAAlNPAKGe+ksAABCAwLgTCH6F/A9/+EP//tq1y/xStQ9yIFx9g+xDAAJTRSAYUX/yySdi3kjCNjgChqfhygYBCEDguASCyURjhHcmHhdlcz3emdjMhCMQgEB+Ak1Cnd8ENSAAAQhAYJgEgtTHMBvCNgQgAAEIHI8AQn08btSCAAQgcGIEPKE+lOrqjMzMtPq3KtXDE/NJpFZWP8pSO6Ema2WNuXxSrZ1QUDQDAQgUhoAn1LOy9qwhjb2SBleSvYbu2397+m1b1k+fkFgbkV7q87cjc3bP4obGurGYsxbFIQABCJwMAU+o2zW4KBtWvLelunMCw+rFjfhmEfpTK+cYYR9WpXyijwChr3yDAAQgMEgCPQj1IJs7pi0dZfc+yNYUzvX1E0ubHDMiqkEAAhDomUB3odbR6apVyZJsrM1mDNek7OW0kzSvqeMdT/Le5edpHjwufFhdjfLiq1VpNV63+WPb/qYsGZtxPXvca8Metu2elvVtke3102o3Ttdk/QnainLzq94IPLKdYwSfocJXCEAAAgMloHnocNsrNbQB799Ko3IQFom+7TVKUmpoLjvaDiqNFYnLqo1SeqJRWVF7K5VGZOYg+p4WaBxUVrzzas76kNq25/22Muc1M+PVN35JYyVxOmov+W79lNi/2JegvAuITwhAAALjQSD4Wx/pHcBMJm7IohmJnl63uem1zGj6sFqWTZ1klJnMxJ/msdfWNmQjNlYrmxGusbcm2fF42l7OPZPHNrcSHYNXV6MRtKy0sxFNkq6Z095E5aItbs4diAYp1XbVOQ4BCEBgxAQ6pz5m1+Q7HQ5vr19vvTyvtBevDHErRBryzBN0k9ZY2lyRyoGK/oADjdIT10W+a4iOuDtbd6mPnbPqr1nFwgYBCEBgcgh0FmqNY3btO6ms6PK86y1yyLV6y7yyDV9Hr6c1WVzaeyaedg+EjL0B1Cpy0OjFtubR9algcY8leAOBjxEIQODECbQR6prUk5k9kx7QUej2upz2fgllVtMb9lgyg6i+68i1WjMxqDiaCUAdcafLk2tStRN2szJvhteJyNfkh2j2T04Hk3ypD7O2grGrqY6oAZ0trEvdHNJjO1VNwSTbvMy7AXZN/YnjqLmAajuasmnetuv15oMcgQAEIDAOBNJUeTqxpn7ZycRkAs4U8icZ3cRgPDHnykcThs123PnEXlCv1Kj4k4l+O25yMikfT1Ym342fK41SSScjrc/RBKSdXDTf4wnL5Ls9phOdSXz/EU1sxt/D8ulkZsqIPQhAAAInT4C/nqcKzwYBCEBgnAm0SX2Ms8v4BgEIQGC6CCDU09XfRAsBCEwgAYR6AjsNlyEAgekigFBPV38TLQQgMIEEEOoJ7DRchgAEposAQj1d/U20EIDABBJAqCew03AZAhCYLgII9XT1N9FCAAITSAChnsBOw2UIQGC6CPQg1Pp3O5K/56F/a6Oc/eNM/Z6fLuBECwEIQCAvge5CfVgXmZ+P7Zo/hDQf/l3pfs/n9ZjyEIAABKaMQHehNn9Vbn42whKIckyq3/NTBpxwIQABCOQl0FWoD+vzctb91f+6avbZWLTjlvo9n9dhykMAAhCYNgJt/3qeeYNKuzd/658rlY366b7O+2+CmTboxAsBCEAgD4G2I+rFDfN6LX1hQPK6rQOplMxbVaLXbfV7Po+TlIUABCAwzQTaCrWFEuSkmUic5guF2CEAgdERIPUxOva0DAEIQKAnAm1H1Ca1cVCpyJ6mOvTFM9LYq+jbxKN9k1/u93xP3lEIAhCAAASkrVDbl8bWdZVHDMlmQYIFH/pS2b7Ox4b5gAAEIACBjgQ6CLWfkw5FObLY7/mOfnESAhCAAARiAm1z1BCCAAQgAIHxINBhRD0eDuIFBCAAgWkngFBP+xVA/BCAwNgTQKjHvotwEAIQmHYCCPW0XwHEDwEIjD0BhHrsuwgHIQCBaSeAUE/7FUD8EIDA2BNAqMe+i3AQAhCYdgII9bRfAcQPAQiMPQGEeuy7CAchAIFpJ4BQT/sVQPwQgMDYE0Cox76LcBACEJh2Agj1tF8BxA8BCIw9AYR67LsIByEAgWkngFBP+xVA/BCAwNgTQKjHvotwEAIQmHYCCPW0XwHEDwEIjD0BhHrsuwgHIQCBaSeAUE/7FUD8EIDA2BNAqMe+i3AQAhCYdgII9bRfAcQPAQiMPQGEeuy7CAchAIFpJ4BQT/sVQPwQgMDYE0Cox76LcBACEJh2Agj1tF8BxA8BCIw9AYR67LsIByEAgWkngFBP+xVA/BCAwNgTQKjHvotwEAIQmHYCCPW0XwHEDwEIjD0BhHrsuwgHIQCBaSeAUE/7FUD8EIDA2BPoQahrUi7X4kAOGWpW8QAABKNJREFUpVquymEQVr/nA2N8gQAEIACBDIHuQn1YF5mfj6vVpS7zMusb6fe8b4t9CEAAAhBoItBdqOt1FepYmgNRjm31e77JJQ5AAAIQgIBPoKtQH9bn5exiXKWumn02GE9Lv+d9Z9iHAAQgAIFmAjMN3ZoPi9TKM7K02eqMyErlQDbqp/s6/2wtFPzWLXEUAhCAAATajqgXNxrSaOxJqbSnn2b/QCqlihzovhHZfs+DHgIQgAAEeiPQVqht9SAnzURib0gpBQEIQGCwBEh9DJYn1iAAAQgMnEDbEbVJbRxUKrJn0x6a+tirSOXApEDS1Ec/5wceCQYhAAEIFJRAW6EW/bWWnbqu8ogDt1mQYP6v3/MFJUpYEIAABAZMoINQ+znpUJQjH/o9P+BIMAcBCECgoATa5qgLGi9hQQACEJg4Ah1G1BMXCw5DAAIQKCQBhLqQ3UpQEIBAkQgg1EXqTWKBAAQKSQChLmS3EhQEIFAkAgh1kXqTWCAAgUISQKgL2a0EBQEIFIkAQl2k3iQWCECgkAQQ6kJ2K0FBAAJFIoBQF6k3iQUCECgkAYS6kN1KUBCAQJEIINRF6k1igQAECkkAoS5ktxIUBCBQJAIIdZF6k1ggAIFCEkCoC9mtBAUBCBSJAEJdpN4kFghAoJAEEOpCditBQQACRSKAUBepN4kFAhAoJAGEupDdSlAQgECRCCDURepNYoEABApJAKEuZLcSFAQgUCQCCHWRepNYIACBQhJAqAvZrQQFAQgUiQBCXaTeJBYIQKCQBBDqQnYrQUEAAkUigFAXqTeJBQIQKCQBhLqQ3UpQEIBAkQgg1EXqTWKBAAQKSQChLmS3EhQEIFAkAgh1kXqTWCAAgUISQKgL2a0EBQEIFIlAD0Jdk3K5Fsd8KNVyVQ4DAv2eD4zxBQIQgAAEMgS6C/VhXWR+Pq5Wl7rMy6xvpN/zvi32IQABCECgiUB3oa7XVahjaQ5EObbV7/kmlzgAAQhAAAI+ga5CfVifl7OLcZW6avbZYDwt/Z73nWEfAhCAAASaCcw0dGs+LFIrz8jSZqszIiuVA9mon+7r/LO1UPBbt8RRCEAAAhBoO6Je3GhIo7EnpdKefpr9A6mUKnKg+0Zk+z0PeghAAAIQ6I1AW6G21YOcNBOJvSGlFAQgAIHBEiD1MVieWIMABCAwcAJtR9QmtXFQqcieTXto6mOvIpUDkwJJUx/9nB94JBiEAAQgUFACbYVa9Ndaduq6yiMO3GZBgvm/fs8XlChhQQACEBgwgQ5C7eekQ1GOfOj3/IAjwRwEIACBghJom6MuaLyEBQEIQGDiCHQYUU9cLDgMAQhAoJAEEOpCditBQQACRSKAUBepN4kFAhAoJAGEupDdSlAQgECRCCDURepNYoEABApJAKEuZLcSFAQgUCQCCHWRepNYIACBQhJAqAvZrQQFAQgUiQBCXaTeJBYIQKCQBBDqQnYrQUEAAkUigFAXqTeJBQIQKCQBhLqQ3UpQEIBAkQgg1EXqTWKBAAQKSQChLmS3EhQEIFAkAgh1kXqTWCAAgUISQKgL2a0EBQEIFIkAQl2k3iQWCECgkAT+P/ar2xKny13IAAAAAElFTkSuQmCC;" vertex="1" parent="1">
          <mxGeometry x="40" y="40" width="362" height="479" as="geometry" />
        </mxCell>
        <mxCell id="4dt3MP7up7sCzVDODYnL-2" value="&lt;b&gt;Label6&lt;/b&gt;" style="text;html=1;align=center;verticalAlign=middle;whiteSpace=wrap;rounded=0;" vertex="1" parent="1">
          <mxGeometry x="260" y="40" width="60" height="30" as="geometry" />
        </mxCell>
        <mxCell id="4dt3MP7up7sCzVDODYnL-3" value="Label1" style="text;html=1;align=center;verticalAlign=middle;whiteSpace=wrap;rounded=0;fontStyle=1" vertex="1" parent="1">
          <mxGeometry x="330" y="70" width="60" height="30" as="geometry" />
        </mxCell>
        <mxCell id="4dt3MP7up7sCzVDODYnL-4" value="Table1, PlaceHolder" style="text;html=1;align=center;verticalAlign=middle;whiteSpace=wrap;rounded=0;fontStyle=1" vertex="1" parent="1">
          <mxGeometry x="365" y="130" width="125" height="30" as="geometry" />
        </mxCell>
        <mxCell id="4dt3MP7up7sCzVDODYnL-5" value="Button1" style="text;html=1;align=center;verticalAlign=middle;whiteSpace=wrap;rounded=0;fontStyle=1" vertex="1" parent="1">
          <mxGeometry x="340" y="180" width="60" height="30" as="geometry" />
        </mxCell>
        <mxCell id="4dt3MP7up7sCzVDODYnL-6" value="Label3, TextBox1" style="text;html=1;align=center;verticalAlign=middle;whiteSpace=wrap;rounded=0;fontStyle=1" vertex="1" parent="1">
          <mxGeometry x="290" y="210" width="110" height="30" as="geometry" />
        </mxCell>
        <mxCell id="4dt3MP7up7sCzVDODYnL-7" value="Label4, Label5" style="text;html=1;align=center;verticalAlign=middle;whiteSpace=wrap;rounded=0;fontStyle=1" vertex="1" parent="1">
          <mxGeometry x="290" y="260" width="100" height="30" as="geometry" />
        </mxCell>
        <mxCell id="4dt3MP7up7sCzVDODYnL-8" value="TextBox2, TextBox3" style="text;html=1;align=center;verticalAlign=middle;whiteSpace=wrap;rounded=0;fontStyle=1" vertex="1" parent="1">
          <mxGeometry x="290" y="300" width="120" height="30" as="geometry" />
        </mxCell>
        <mxCell id="4dt3MP7up7sCzVDODYnL-9" value="Button2" style="text;html=1;align=center;verticalAlign=middle;whiteSpace=wrap;rounded=0;fontStyle=1" vertex="1" parent="1">
          <mxGeometry x="350" y="350" width="60" height="30" as="geometry" />
        </mxCell>
        <mxCell id="4dt3MP7up7sCzVDODYnL-10" value="Label2" style="text;html=1;align=center;verticalAlign=middle;whiteSpace=wrap;rounded=0;fontStyle=1" vertex="1" parent="1">
          <mxGeometry x="290" y="380" width="60" height="30" as="geometry" />
        </mxCell>
        <mxCell id="4dt3MP7up7sCzVDODYnL-11" value="Table2, Table3, Table4" style="text;html=1;align=center;verticalAlign=middle;whiteSpace=wrap;rounded=0;fontStyle=1" vertex="1" parent="1">
          <mxGeometry x="240" y="450" width="120" height="30" as="geometry" />
        </mxCell>
        <mxCell id="4dt3MP7up7sCzVDODYnL-13" value="" style="endArrow=classic;html=1;rounded=0;exitX=0;exitY=0.25;exitDx=0;exitDy=0;" edge="1" parent="1" source="4dt3MP7up7sCzVDODYnL-6">
          <mxGeometry width="50" height="50" relative="1" as="geometry">
            <mxPoint x="60" y="270" as="sourcePoint" />
            <mxPoint x="110" y="220" as="targetPoint" />
          </mxGeometry>
        </mxCell>
        <mxCell id="4dt3MP7up7sCzVDODYnL-14" value="" style="endArrow=classic;html=1;rounded=0;" edge="1" parent="1">
          <mxGeometry width="50" height="50" relative="1" as="geometry">
            <mxPoint x="290" y="220" as="sourcePoint" />
            <mxPoint x="230" y="230" as="targetPoint" />
          </mxGeometry>
        </mxCell>
        <mxCell id="4dt3MP7up7sCzVDODYnL-15" value="" style="endArrow=classic;html=1;rounded=0;exitX=0;exitY=0.5;exitDx=0;exitDy=0;" edge="1" parent="1" source="4dt3MP7up7sCzVDODYnL-7">
          <mxGeometry width="50" height="50" relative="1" as="geometry">
            <mxPoint x="90" y="320" as="sourcePoint" />
            <mxPoint x="140" y="270" as="targetPoint" />
          </mxGeometry>
        </mxCell>
        <mxCell id="4dt3MP7up7sCzVDODYnL-16" value="" style="endArrow=classic;html=1;rounded=0;" edge="1" parent="1" source="4dt3MP7up7sCzVDODYnL-7">
          <mxGeometry width="50" height="50" relative="1" as="geometry">
            <mxPoint x="80" y="360" as="sourcePoint" />
            <mxPoint x="130" y="310" as="targetPoint" />
          </mxGeometry>
        </mxCell>
        <mxCell id="4dt3MP7up7sCzVDODYnL-17" value="" style="endArrow=classic;html=1;rounded=0;" edge="1" parent="1" source="4dt3MP7up7sCzVDODYnL-8">
          <mxGeometry width="50" height="50" relative="1" as="geometry">
            <mxPoint x="180" y="340" as="sourcePoint" />
            <mxPoint x="230" y="290" as="targetPoint" />
          </mxGeometry>
        </mxCell>
        <mxCell id="4dt3MP7up7sCzVDODYnL-18" value="" style="endArrow=classic;html=1;rounded=0;exitX=0;exitY=0.75;exitDx=0;exitDy=0;" edge="1" parent="1" source="4dt3MP7up7sCzVDODYnL-8">
          <mxGeometry width="50" height="50" relative="1" as="geometry">
            <mxPoint x="180" y="380" as="sourcePoint" />
            <mxPoint x="230" y="330" as="targetPoint" />
          </mxGeometry>
        </mxCell>
        <mxCell id="4dt3MP7up7sCzVDODYnL-19" value="" style="endArrow=classic;html=1;rounded=0;exitX=0;exitY=0.5;exitDx=0;exitDy=0;" edge="1" parent="1" source="4dt3MP7up7sCzVDODYnL-9">
          <mxGeometry width="50" height="50" relative="1" as="geometry">
            <mxPoint x="90" y="420" as="sourcePoint" />
            <mxPoint x="140" y="370" as="targetPoint" />
          </mxGeometry>
        </mxCell>
        <mxCell id="4dt3MP7up7sCzVDODYnL-20" value="" style="endArrow=classic;html=1;rounded=0;exitX=0;exitY=0.5;exitDx=0;exitDy=0;" edge="1" parent="1" source="4dt3MP7up7sCzVDODYnL-10">
          <mxGeometry width="50" height="50" relative="1" as="geometry">
            <mxPoint x="70" y="440" as="sourcePoint" />
            <mxPoint x="120" y="390" as="targetPoint" />
          </mxGeometry>
        </mxCell>
        <mxCell id="4dt3MP7up7sCzVDODYnL-21" value="" style="endArrow=classic;html=1;rounded=0;exitX=0;exitY=0.25;exitDx=0;exitDy=0;" edge="1" parent="1" source="4dt3MP7up7sCzVDODYnL-11">
          <mxGeometry width="50" height="50" relative="1" as="geometry">
            <mxPoint x="40" y="540" as="sourcePoint" />
            <mxPoint x="90" y="490" as="targetPoint" />
          </mxGeometry>
        </mxCell>
        <mxCell id="4dt3MP7up7sCzVDODYnL-22" value="" style="endArrow=classic;html=1;rounded=0;" edge="1" parent="1" source="4dt3MP7up7sCzVDODYnL-11">
          <mxGeometry width="50" height="50" relative="1" as="geometry">
            <mxPoint x="40" y="500" as="sourcePoint" />
            <mxPoint x="90" y="450" as="targetPoint" />
          </mxGeometry>
        </mxCell>
        <mxCell id="4dt3MP7up7sCzVDODYnL-23" value="" style="endArrow=classic;html=1;rounded=0;" edge="1" parent="1">
          <mxGeometry width="50" height="50" relative="1" as="geometry">
            <mxPoint x="240" y="460" as="sourcePoint" />
            <mxPoint x="90" y="410" as="targetPoint" />
          </mxGeometry>
        </mxCell>
        <mxCell id="4dt3MP7up7sCzVDODYnL-24" value="" style="endArrow=classic;html=1;rounded=0;exitX=0;exitY=0.5;exitDx=0;exitDy=0;" edge="1" parent="1" source="4dt3MP7up7sCzVDODYnL-5">
          <mxGeometry width="50" height="50" relative="1" as="geometry">
            <mxPoint x="140" y="240" as="sourcePoint" />
            <mxPoint x="190" y="190" as="targetPoint" />
          </mxGeometry>
        </mxCell>
        <mxCell id="4dt3MP7up7sCzVDODYnL-25" value="" style="endArrow=classic;html=1;rounded=0;exitX=0;exitY=0.5;exitDx=0;exitDy=0;" edge="1" parent="1" source="4dt3MP7up7sCzVDODYnL-4">
          <mxGeometry width="50" height="50" relative="1" as="geometry">
            <mxPoint x="265" y="200" as="sourcePoint" />
            <mxPoint x="315" y="150" as="targetPoint" />
          </mxGeometry>
        </mxCell>
        <mxCell id="4dt3MP7up7sCzVDODYnL-26" value="" style="endArrow=classic;html=1;rounded=0;exitX=0;exitY=0.25;exitDx=0;exitDy=0;" edge="1" parent="1" source="4dt3MP7up7sCzVDODYnL-4">
          <mxGeometry width="50" height="50" relative="1" as="geometry">
            <mxPoint x="270" y="170" as="sourcePoint" />
            <mxPoint x="320" y="120" as="targetPoint" />
          </mxGeometry>
        </mxCell>
        <mxCell id="4dt3MP7up7sCzVDODYnL-27" value="" style="endArrow=classic;html=1;rounded=0;exitX=0;exitY=0.5;exitDx=0;exitDy=0;" edge="1" parent="1" source="4dt3MP7up7sCzVDODYnL-3">
          <mxGeometry width="50" height="50" relative="1" as="geometry">
            <mxPoint x="130" y="140" as="sourcePoint" />
            <mxPoint x="180" y="90" as="targetPoint" />
          </mxGeometry>
        </mxCell>
        <mxCell id="4dt3MP7up7sCzVDODYnL-28" value="" style="endArrow=classic;html=1;rounded=0;" edge="1" parent="1" source="4dt3MP7up7sCzVDODYnL-2">
          <mxGeometry width="50" height="50" relative="1" as="geometry">
            <mxPoint x="40" y="100" as="sourcePoint" />
            <mxPoint x="90" y="50" as="targetPoint" />
          </mxGeometry>
        </mxCell>
        <mxCell id="4dt3MP7up7sCzVDODYnL-29" value="Product" style="swimlane;fontStyle=1;align=center;verticalAlign=middle;childLayout=stackLayout;horizontal=1;startSize=29;horizontalStack=0;resizeParent=1;resizeParentMax=0;resizeLast=0;collapsible=0;marginBottom=0;html=1;whiteSpace=wrap;" vertex="1" parent="1">
          <mxGeometry x="15" y="1135" width="190" height="200" as="geometry" />
        </mxCell>
        <mxCell id="4dt3MP7up7sCzVDODYnL-30" value="+Code : string&lt;div&gt;+Name : string&lt;/div&gt;&lt;div&gt;+Price : decimal&lt;/div&gt;&lt;div&gt;+Count : int&lt;/div&gt;" style="text;html=1;strokeColor=none;fillColor=none;align=left;verticalAlign=middle;spacingLeft=4;spacingRight=4;overflow=hidden;rotatable=0;points=[[0,0.5],[1,0.5]];portConstraint=eastwest;whiteSpace=wrap;" vertex="1" parent="4dt3MP7up7sCzVDODYnL-29">
          <mxGeometry y="29" width="190" height="71" as="geometry" />
        </mxCell>
        <mxCell id="4dt3MP7up7sCzVDODYnL-31" value="+Product(in line : string)&lt;div&gt;-SetData(in line : string)&lt;/div&gt;&lt;div&gt;+AddCount(in count : int)&lt;/div&gt;&lt;div&gt;+ToString() : string {query}&lt;/div&gt;" style="text;html=1;strokeColor=none;fillColor=none;align=left;verticalAlign=middle;spacingLeft=4;spacingRight=4;overflow=hidden;rotatable=0;points=[[0,0.5],[1,0.5]];portConstraint=eastwest;whiteSpace=wrap;" vertex="1" parent="4dt3MP7up7sCzVDODYnL-29">
          <mxGeometry y="100" width="190" height="100" as="geometry" />
        </mxCell>
        <mxCell id="4dt3MP7up7sCzVDODYnL-32" value="Prenumerator" style="swimlane;fontStyle=1;align=center;verticalAlign=middle;childLayout=stackLayout;horizontal=1;startSize=29;horizontalStack=0;resizeParent=1;resizeParentMax=0;resizeLast=0;collapsible=0;marginBottom=0;html=1;whiteSpace=wrap;" vertex="1" parent="1">
          <mxGeometry x="230" y="1135" width="195" height="200" as="geometry" />
        </mxCell>
        <mxCell id="4dt3MP7up7sCzVDODYnL-33" value="+Surname : string&lt;div&gt;+Address : string&lt;/div&gt;&lt;div&gt;+Start : int&lt;/div&gt;&lt;div&gt;+Duration : int&lt;/div&gt;&lt;div&gt;+Code : string&lt;/div&gt;&lt;div&gt;+Count : int&lt;/div&gt;" style="text;html=1;strokeColor=none;fillColor=none;align=left;verticalAlign=middle;spacingLeft=4;spacingRight=4;overflow=hidden;rotatable=0;points=[[0,0.5],[1,0.5]];portConstraint=eastwest;whiteSpace=wrap;" vertex="1" parent="4dt3MP7up7sCzVDODYnL-32">
          <mxGeometry y="29" width="195" height="101" as="geometry" />
        </mxCell>
        <mxCell id="4dt3MP7up7sCzVDODYnL-34" value="+Prenumerator(in line : string)&lt;div&gt;-SetData(in line : string)&lt;/div&gt;&lt;div&gt;+ToString() : string {query}&lt;/div&gt;" style="text;html=1;strokeColor=none;fillColor=none;align=left;verticalAlign=middle;spacingLeft=4;spacingRight=4;overflow=hidden;rotatable=0;points=[[0,0.5],[1,0.5]];portConstraint=eastwest;whiteSpace=wrap;" vertex="1" parent="4dt3MP7up7sCzVDODYnL-32">
          <mxGeometry y="130" width="195" height="70" as="geometry" />
        </mxCell>
        <mxCell id="4dt3MP7up7sCzVDODYnL-35" value="Storage" style="swimlane;fontStyle=1;align=center;verticalAlign=middle;childLayout=stackLayout;horizontal=1;startSize=29;horizontalStack=0;resizeParent=1;resizeParentMax=0;resizeLast=0;collapsible=0;marginBottom=0;html=1;whiteSpace=wrap;" vertex="1" parent="1">
          <mxGeometry x="445" y="1135" width="220" height="200" as="geometry" />
        </mxCell>
        <mxCell id="4dt3MP7up7sCzVDODYnL-36" value="+Year : int&lt;div&gt;-prenumerators : List&amp;lt;Prenumerator&amp;gt;&lt;/div&gt;" style="text;html=1;strokeColor=none;fillColor=none;align=left;verticalAlign=middle;spacingLeft=4;spacingRight=4;overflow=hidden;rotatable=0;points=[[0,0.5],[1,0.5]];portConstraint=eastwest;whiteSpace=wrap;" vertex="1" parent="4dt3MP7up7sCzVDODYnL-35">
          <mxGeometry y="29" width="220" height="61" as="geometry" />
        </mxCell>
        <mxCell id="4dt3MP7up7sCzVDODYnL-45" value="" style="endArrow=classic;html=1;rounded=0;" edge="1" parent="4dt3MP7up7sCzVDODYnL-35" source="4dt3MP7up7sCzVDODYnL-33">
          <mxGeometry width="50" height="50" relative="1" as="geometry">
            <mxPoint x="-20" y="140" as="sourcePoint" />
            <mxPoint x="30" y="90" as="targetPoint" />
          </mxGeometry>
        </mxCell>
        <mxCell id="4dt3MP7up7sCzVDODYnL-37" value="+Storage(in year : int)&lt;div&gt;+AddPrenum(in prenumerator : Prenumerator)&lt;/div&gt;&lt;div&gt;+GetPrenumerators() : List&amp;lt;Prenumerator&amp;gt; {query}&lt;/div&gt;" style="text;html=1;strokeColor=none;fillColor=none;align=left;verticalAlign=middle;spacingLeft=4;spacingRight=4;overflow=hidden;rotatable=0;points=[[0,0.5],[1,0.5]];portConstraint=eastwest;whiteSpace=wrap;" vertex="1" parent="4dt3MP7up7sCzVDODYnL-35">
          <mxGeometry y="90" width="220" height="110" as="geometry" />
        </mxCell>
        <mxCell id="4dt3MP7up7sCzVDODYnL-38" value="TaskUtils" style="swimlane;fontStyle=1;align=center;verticalAlign=middle;childLayout=stackLayout;horizontal=1;startSize=29;horizontalStack=0;resizeParent=1;resizeParentMax=0;resizeLast=0;collapsible=0;marginBottom=0;html=1;whiteSpace=wrap;" vertex="1" parent="1">
          <mxGeometry x="15" y="1355" width="350" height="180" as="geometry" />
        </mxCell>
        <mxCell id="4dt3MP7up7sCzVDODYnL-40" value="+AllPrenum(in conteiners : List&amp;lt;Storage&amp;gt;) : List&amp;lt;Prenumerator&amp;gt; {query}&lt;div&gt;+SelectedPrenumerators(in conteiners : List&amp;lt;Storage&amp;gt;, in month : int, in startYear : int, in endYear : int) : List&amp;lt;Prenumerator&amp;gt; {query}&lt;/div&gt;&lt;div&gt;+ProductCount(in prenumerators : List&amp;lt;Prenumerator, in products : List&amp;lt;Product&amp;gt;) {query}&lt;/div&gt;" style="text;html=1;strokeColor=none;fillColor=none;align=left;verticalAlign=middle;spacingLeft=4;spacingRight=4;overflow=hidden;rotatable=0;points=[[0,0.5],[1,0.5]];portConstraint=eastwest;whiteSpace=wrap;" vertex="1" parent="4dt3MP7up7sCzVDODYnL-38">
          <mxGeometry y="29" width="350" height="151" as="geometry" />
        </mxCell>
        <mxCell id="4dt3MP7up7sCzVDODYnL-41" value="InOut" style="swimlane;fontStyle=1;align=center;verticalAlign=middle;childLayout=stackLayout;horizontal=1;startSize=29;horizontalStack=0;resizeParent=1;resizeParentMax=0;resizeLast=0;collapsible=0;marginBottom=0;html=1;whiteSpace=wrap;" vertex="1" parent="1">
          <mxGeometry x="380" y="1355" width="455" height="220" as="geometry" />
        </mxCell>
        <mxCell id="4dt3MP7up7sCzVDODYnL-42" value="+ReadConteiners(in file : string, inout error : string) : List&amp;lt;Storage&amp;gt; {query}&lt;div&gt;-ReadConteiner(in path : string, inout error : string) : Storage {query}&lt;/div&gt;&lt;div&gt;+ReadProducts(in file : string, inout error : string) : List&amp;lt;Product&amp;gt; {query}&lt;/div&gt;&lt;div&gt;+PrintConteiners(in conteiners : List&amp;lt;Storage&amp;gt;, in file : string, in header : string) {query}&lt;/div&gt;&lt;div&gt;+PrintProducts(in products : List&amp;lt;Product&amp;gt;, in file : string, in header : string) {query}&lt;/div&gt;&lt;div&gt;+PrintOrderPrice(in products : List&amp;lt;Product&amp;gt;, in prenumerators : List&amp;lt;Prenumerator&amp;gt;, in file : string, in header : string) {query}&lt;/div&gt;&lt;div&gt;+PrintSelected(in prenumerators : List&amp;lt;Prenumerator&amp;gt;, in file : string, in header : string) {query}&lt;/div&gt;&lt;div&gt;-OrderedMonths(in prenumerator : Prenumerator) : string {query}&lt;/div&gt;" style="text;html=1;strokeColor=none;fillColor=none;align=left;verticalAlign=middle;spacingLeft=4;spacingRight=4;overflow=hidden;rotatable=0;points=[[0,0.5],[1,0.5]];portConstraint=eastwest;whiteSpace=wrap;" vertex="1" parent="4dt3MP7up7sCzVDODYnL-41">
          <mxGeometry y="29" width="455" height="191" as="geometry" />
        </mxCell>
        <mxCell id="4dt3MP7up7sCzVDODYnL-43" value="Form1" style="swimlane;fontStyle=1;align=center;verticalAlign=middle;childLayout=stackLayout;horizontal=1;startSize=29;horizontalStack=0;resizeParent=1;resizeParentMax=0;resizeLast=0;collapsible=0;marginBottom=0;html=1;whiteSpace=wrap;" vertex="1" parent="1">
          <mxGeometry x="15" y="1595" width="430" height="230" as="geometry" />
        </mxCell>
        <mxCell id="4dt3MP7up7sCzVDODYnL-47" value="" style="endArrow=classic;html=1;rounded=0;" edge="1" parent="4dt3MP7up7sCzVDODYnL-43" source="4dt3MP7up7sCzVDODYnL-37">
          <mxGeometry width="50" height="50" relative="1" as="geometry">
            <mxPoint x="320" y="79" as="sourcePoint" />
            <mxPoint x="370" y="29" as="targetPoint" />
          </mxGeometry>
        </mxCell>
        <mxCell id="4dt3MP7up7sCzVDODYnL-48" value="" style="endArrow=classic;html=1;rounded=0;" edge="1" parent="4dt3MP7up7sCzVDODYnL-43" source="4dt3MP7up7sCzVDODYnL-40">
          <mxGeometry width="50" height="50" relative="1" as="geometry">
            <mxPoint x="300" y="80" as="sourcePoint" />
            <mxPoint x="350" y="30" as="targetPoint" />
          </mxGeometry>
        </mxCell>
        <mxCell id="4dt3MP7up7sCzVDODYnL-50" value="" style="endArrow=classic;html=1;rounded=0;" edge="1" parent="4dt3MP7up7sCzVDODYnL-43" source="4dt3MP7up7sCzVDODYnL-34">
          <mxGeometry width="50" height="50" relative="1" as="geometry">
            <mxPoint x="240" y="70" as="sourcePoint" />
            <mxPoint x="290" y="20" as="targetPoint" />
          </mxGeometry>
        </mxCell>
        <mxCell id="4dt3MP7up7sCzVDODYnL-44" value="#Page_Load(in sender : object, in e : EventArgs) {query}&lt;div&gt;#Button1_Click(in sender : object, in e : EventArgs) {query}&lt;/div&gt;&lt;div&gt;#Button2_Click(in sender : object, in e : EventArgs) {query}&lt;/div&gt;&lt;div&gt;-StorageTables(in storages : List&amp;lt;Storage&amp;gt;) {query}&lt;/div&gt;&lt;div&gt;-CaptionsConteinerTable() : TableRow {query}&lt;/div&gt;&lt;div&gt;-FillProductsTable(in products : List&amp;lt;Product&amp;gt;) {query}&lt;/div&gt;&lt;div&gt;-CaptionsProductTable() : TableRow {query}&lt;/div&gt;&lt;div&gt;-FillTable2(in products : List&amp;lt;Product&amp;gt;, in prenumerators : List&amp;lt;Prenumerator&amp;gt;) {query}&lt;/div&gt;&lt;div&gt;-FillTable3(in prenumerators : List&amp;lt;Prenumerator&amp;gt;) {query}&lt;/div&gt;&lt;div&gt;-FillMonths(in prenumerator : Prenumerator) : string {query}&lt;/div&gt;&lt;div&gt;-FillTable4(in products : List&amp;lt;Product&amp;gt;) {query}&lt;/div&gt;" style="text;html=1;strokeColor=none;fillColor=none;align=left;verticalAlign=middle;spacingLeft=4;spacingRight=4;overflow=hidden;rotatable=0;points=[[0,0.5],[1,0.5]];portConstraint=eastwest;whiteSpace=wrap;" vertex="1" parent="4dt3MP7up7sCzVDODYnL-43">
          <mxGeometry y="29" width="430" height="201" as="geometry" />
        </mxCell>
        <mxCell id="4dt3MP7up7sCzVDODYnL-46" value="" style="endArrow=classic;html=1;rounded=0;" edge="1" parent="1" source="4dt3MP7up7sCzVDODYnL-31" target="4dt3MP7up7sCzVDODYnL-44">
          <mxGeometry width="50" height="50" relative="1" as="geometry">
            <mxPoint x="365" y="1685" as="sourcePoint" />
            <mxPoint x="415" y="1635" as="targetPoint" />
          </mxGeometry>
        </mxCell>
        <mxCell id="4dt3MP7up7sCzVDODYnL-49" value="" style="endArrow=classic;html=1;rounded=0;entryX=0.942;entryY=-0.01;entryDx=0;entryDy=0;entryPerimeter=0;" edge="1" parent="1" source="4dt3MP7up7sCzVDODYnL-42" target="4dt3MP7up7sCzVDODYnL-44">
          <mxGeometry width="50" height="50" relative="1" as="geometry">
            <mxPoint x="375" y="1705" as="sourcePoint" />
            <mxPoint x="425" y="1655" as="targetPoint" />
          </mxGeometry>
        </mxCell>
      </root>
    </mxGraphModel>
  </diagram>
</mxfile>
